<svg xmlns="http://www.w3.org/2000/svg" width="100" height="100"><path fill="#fbde34" d="M0 0h100v100H0z"/><path d="M44.875 70.875v22h4.375V84.53c0-1.62.28-2.79.813-3.5.533-.707 1.372-1.06 2.562-1.06 1.047 0 1.777.32 2.188.968.41.646.624 1.623.624 2.937v9h4.376v-9.78c0-.987-.076-1.91-.25-2.72-.175-.81-.476-1.498-.907-2.063-.43-.564-1.032-.994-1.78-1.312-.75-.318-1.706-.47-2.876-.47-.82 0-1.67.206-2.53.626-.863.42-1.572 1.108-2.126 2.03h-.094v-8.31h-4.375zm-9.344 1.313v4.78h-2.655v2.907h2.656v9.406c0 .802.14 1.446.407 1.94.267.49.633.857 1.094 1.124.463.267.99.47 1.595.562.605.093 1.23.125 1.906.125.432 0 .893-.01 1.345-.03.45-.02.85-.063 1.22-.125V89.5c-.207.04-.432.074-.657.094-.227.02-.442.03-.688.03-.74 0-1.222-.128-1.47-.374-.245-.246-.374-.76-.374-1.5v-7.875h3.188V76.97h-3.188v-4.782H35.53zm33.407 4.343c-1.21 0-2.286.195-3.28.626-.996.43-1.876 1.032-2.594 1.78-.72.75-1.267 1.63-1.657 2.658-.39 1.026-.593 2.153-.593 3.344 0 1.23.213 2.348.593 3.374.38 1.027.896 1.918 1.594 2.657.697.738 1.557 1.317 2.563 1.718 1.005.4 2.123.593 3.374.593 1.806 0 3.353-.427 4.626-1.25 1.272-.82 2.228-2.183 2.843-4.093h-3.844c-.143.493-.55.965-1.187 1.407-.636.442-1.4.656-2.28.656-1.233 0-2.157-.3-2.814-.938-.656-.635-1.03-1.677-1.093-3.093h11.5c.082-1.233-.025-2.403-.312-3.532-.288-1.13-.76-2.15-1.406-3.032-.648-.882-1.465-1.57-2.47-2.094-1.006-.523-2.208-.78-3.563-.78zm17.907 0c-.924 0-1.837.206-2.72.626-.882.42-1.6 1.108-2.155 2.03h-.095V76.97H77.72v15.905h4.374V84.53c0-1.62.278-2.79.812-3.5.534-.707 1.372-1.06 2.563-1.06 1.045 0 1.775.32 2.186.968.41.646.625 1.623.625 2.937v9h4.376v-9.78c0-.987-.076-1.91-.25-2.72-.174-.81-.506-1.498-.937-2.063-.432-.564-1.003-.994-1.75-1.312-.75-.318-1.707-.47-2.876-.47zm-18 3.282c1.067 0 1.85.3 2.375.876.522.575.887 1.422 1.093 2.53h-7.126c.02-.307.106-.67.22-1.062.112-.39.285-.744.562-1.094.276-.348.662-.638 1.124-.874.46-.236 1.052-.376 1.75-.376z" fill="#524739"/></svg>