<svg xmlns="http://www.w3.org/2000/svg" width="100" height="100"><path d="M31.875 18.625C14.545 18.625.5 32.67.5 50c0 17.33 14.044 31.375 31.375 31.375 6.75 0 13.007-2.124 18.125-5.75 5.118 3.626 11.375 5.75 18.125 5.75C85.455 81.375 99.5 67.33 99.5 50c0-17.33-14.044-31.375-31.375-31.375-6.75 0-13.007 2.124-18.125 5.75-5.118-3.626-11.375-5.75-18.125-5.75z" fill="#f2f2f2" stroke="#000"/><path d="M49.98 24.297C41.894 29.973 36.624 39.37 36.624 50c0 10.63 5.27 20.027 13.358 25.703C58.078 70.028 63.378 60.638 63.378 50s-5.3-20.028-13.396-25.703z" fill="#ccc" stroke="#000"/><path d="M58.592 57.236l.434-.068c.025.174.092.308.203.4.11.094.267.14.468.14.2 0 .35-.04.45-.122.096-.083.145-.18.145-.29 0-.1-.043-.178-.13-.235-.06-.038-.21-.088-.448-.148-.323-.08-.546-.15-.672-.21-.123-.06-.218-.142-.283-.247-.063-.105-.095-.222-.095-.35 0-.114.026-.22.078-.32.054-.098.126-.18.217-.245.07-.05.16-.093.28-.127.117-.036.244-.054.38-.054.203 0 .38.028.534.087.155.06.27.138.342.24.073.098.124.232.15.4l-.428.06c-.02-.135-.077-.24-.17-.314-.094-.075-.226-.112-.397-.112-.2 0-.345.034-.43.1-.087.068-.13.146-.13.235 0 .057.018.108.053.154.036.046.092.085.17.116.043.016.172.054.387.113.31.082.527.15.65.204.123.052.22.128.29.23.07.1.105.225.105.375 0 .146-.043.284-.13.414-.084.13-.207.23-.368.3-.16.07-.344.105-.547.105-.337 0-.594-.07-.77-.21-.177-.14-.29-.348-.338-.623m-.833-.062l.453.056c-.07.266-.204.472-.398.62-.193.145-.44.218-.742.218-.38 0-.68-.116-.903-.35-.222-.233-.332-.56-.332-.983 0-.436.112-.774.337-1.015.224-.24.516-.362.874-.362.345 0 .63.118.848.354.22.236.33.568.33.996 0 .026 0 .065-.003.118h-1.933c.016.284.097.503.242.654.144.15.325.227.542.227.16 0 .298-.042.412-.127.114-.085.204-.22.27-.405m-1.442-.71h1.448c-.02-.22-.075-.382-.166-.49-.14-.17-.32-.255-.544-.255-.202 0-.372.067-.51.202-.137.135-.213.316-.228.542M54.86 58.01v-3.58h.44v3.58m-2.807 0h-.408v-3.58h.44v1.278c.185-.233.422-.35.71-.35.16 0 .31.033.452.098.143.063.26.154.35.27.094.117.167.257.22.42.05.166.077.342.077.53 0 .443-.11.786-.33 1.03-.22.242-.483.363-.79.363-.307 0-.547-.13-.72-.385v.325m-.006-1.316c0 .31.042.536.127.674.138.226.326.34.562.34.192 0 .358-.084.498-.25.14-.167.21-.416.21-.747 0-.337-.068-.587-.203-.748-.134-.16-.295-.242-.486-.242-.192 0-.358.084-.498.252-.14.166-.21.407-.21.722m-1.492.996c-.162.138-.32.236-.47.293-.15.057-.312.085-.484.085-.285 0-.504-.07-.657-.208-.153-.14-.23-.318-.23-.534 0-.127.03-.243.086-.347.06-.107.135-.19.228-.255.094-.063.2-.11.317-.144.087-.022.217-.044.39-.065.356-.042.617-.093.785-.15 0-.06.002-.1.002-.116 0-.18-.04-.306-.124-.38-.113-.098-.28-.148-.5-.148-.208 0-.36.037-.46.11-.097.072-.17.2-.217.383l-.43-.06c.04-.183.105-.33.194-.443.09-.114.22-.2.388-.262.17-.062.366-.093.59-.093.22 0 .4.026.538.078.14.052.24.118.305.198.065.078.11.177.137.298.015.076.022.21.022.406v.586c0 .41.01.667.027.776.02.108.058.21.113.31h-.46c-.044-.09-.074-.197-.087-.32m-.036-.98c-.16.064-.4.12-.718.165-.18.026-.308.055-.383.088-.076.034-.134.082-.175.145-.04.062-.06.13-.06.208 0 .117.043.215.13.293.09.078.22.117.392.117.17 0 .32-.037.45-.11.133-.075.23-.177.292-.305.046-.1.07-.246.07-.44v-.16m-4.33.528l.433-.068c.025.174.092.307.203.4.112.093.268.14.47.14.2 0 .35-.042.448-.123.098-.083.146-.18.146-.29 0-.1-.043-.178-.13-.235-.06-.04-.21-.09-.448-.15-.323-.08-.546-.15-.672-.21-.123-.06-.218-.14-.283-.245-.063-.106-.095-.222-.095-.35 0-.115.026-.22.078-.32.054-.098.126-.18.217-.246.07-.05.162-.094.28-.128.118-.036.244-.054.38-.054.203 0 .38.03.534.088.156.06.27.14.343.24.073.1.124.232.15.4l-.428.06c-.02-.134-.077-.24-.17-.313-.094-.075-.226-.113-.397-.113-.202 0-.346.033-.432.1-.086.067-.13.145-.13.235 0 .057.02.108.054.154.036.046.092.085.17.116.043.016.172.054.387.112.31.083.527.15.65.205.123.052.22.13.29.23.07.1.105.226.105.376 0 .145-.043.283-.13.414-.084.128-.207.228-.368.3-.16.07-.343.105-.547.105-.337 0-.594-.07-.77-.21-.177-.14-.29-.35-.338-.624m-.936-2.3v-.505h.44v.506m-.44 3.074v-2.593h.44v2.593m-1.566 0v-3.58h.44v3.58m-1.54-3.074v-.505h.44v.506m-.44 3.074v-2.593h.44v2.593m-.87-.393l.063.388c-.123.026-.233.04-.33.04-.16 0-.284-.026-.372-.077-.088-.05-.15-.116-.186-.198-.036-.083-.053-.256-.053-.52v-1.49h-.324v-.343h.323v-.642l.436-.264v.907h.44v.342h-.44v1.515c0 .125.007.206.02.24.018.037.043.065.077.086.036.022.086.033.152.033.048 0 .113-.01.192-.017m-2.043.394v-.38c-.202.292-.476.438-.823.438-.152 0-.295-.03-.428-.088-.132-.06-.23-.13-.296-.22-.063-.088-.108-.198-.134-.326-.018-.086-.027-.223-.027-.41v-1.607h.44v1.438c0 .23.008.384.026.464.03.114.088.205.177.272.09.065.2.098.332.098.13 0 .255-.033.37-.1.116-.068.197-.16.244-.276.05-.117.074-.286.074-.508v-1.39h.44v2.594h-.394m13.843-7.024l.434-.068c.026.174.093.307.204.4.112.093.268.14.47.14.2 0 .35-.042.448-.123.098-.083.146-.18.146-.29 0-.1-.043-.178-.13-.235-.06-.04-.21-.09-.448-.15-.322-.08-.546-.15-.672-.21-.123-.06-.218-.14-.283-.245-.063-.106-.095-.222-.095-.35 0-.115.026-.22.078-.32.054-.098.126-.18.217-.246.07-.05.162-.094.28-.128.118-.036.244-.054.38-.054.203 0 .38.03.534.088.154.06.268.14.34.24.074.1.125.232.152.4l-.43.06c-.02-.134-.076-.24-.17-.313-.093-.075-.225-.113-.396-.113-.202 0-.346.033-.432.1-.086.067-.13.145-.13.235 0 .057.02.108.054.154.036.046.092.085.17.116.043.016.172.054.387.112.31.083.527.15.65.205.123.052.22.13.29.23.07.1.105.226.105.376 0 .145-.043.283-.13.414-.084.128-.207.228-.368.3-.16.07-.343.105-.547.105-.337 0-.594-.07-.77-.21-.177-.14-.29-.35-.338-.624m-.833-.062l.454.056c-.07.266-.204.472-.398.618-.193.147-.44.22-.742.22-.38 0-.68-.117-.903-.35-.222-.234-.332-.562-.332-.983 0-.436.112-.775.337-1.016.224-.242.516-.362.874-.362.346 0 .63.118.85.354.22.236.33.568.33.996l-.003.117h-1.933c.016.285.097.503.242.654.144.15.324.226.54.226.162 0 .3-.042.413-.127.114-.086.205-.22.27-.406m-1.442-.71h1.45c-.02-.218-.076-.382-.167-.49-.14-.17-.32-.255-.544-.255-.203 0-.373.066-.512.202-.136.135-.212.316-.227.542m.475-1.37l.325-.683h.576l-.537.684h-.365m-1.233 2.522l.064.388c-.124.026-.235.04-.332.04-.16 0-.284-.026-.372-.077-.087-.05-.15-.116-.185-.197-.036-.083-.054-.257-.054-.52v-1.492H50.6v-.342h.323v-.642l.437-.264v.906h.442v.342h-.442v1.516c0 .125.007.206.022.242.016.036.042.064.076.085.036.022.086.033.15.033.05 0 .114-.01.194-.017m-2.07-2.68v-.506h.44v.506m-.44 3.073v-2.593h.44v2.592m-1.566 0v-3.58h.44v3.58m-1.52-.32c-.164.138-.32.235-.472.292-.15.057-.31.085-.484.085-.285 0-.504-.07-.657-.207-.153-.14-.23-.318-.23-.535 0-.127.03-.242.086-.346.058-.107.134-.192.226-.255.095-.063.2-.112.318-.144.086-.022.216-.044.39-.065.355-.042.616-.093.784-.152L47.49 50c0-.18-.04-.307-.124-.38-.112-.1-.28-.15-.5-.15-.207 0-.36.038-.46.11-.097.073-.17.2-.217.384l-.43-.06c.04-.183.103-.33.192-.443.09-.113.22-.2.39-.26.168-.062.364-.093.587-.093.22 0 .4.026.54.078.137.052.24.118.304.197.065.078.11.178.136.298.015.075.022.21.022.406v.586c0 .408.01.667.027.776.02.107.056.21.112.31h-.46c-.045-.09-.074-.198-.087-.32m-.037-.98c-.16.064-.4.12-.718.165-.18.026-.308.055-.383.088-.075.034-.133.082-.173.145-.04.062-.06.13-.06.207 0 .117.043.215.13.293.09.078.22.117.39.117s.32-.037.453-.11c.132-.074.228-.176.29-.305.047-.1.07-.245.07-.44v-.16M43.05 51.76v-2.593h.395v.368c.19-.285.466-.427.825-.427.157 0 .3.03.43.085.132.055.23.13.295.22.066.09.11.2.137.324.016.08.025.224.025.428v1.594h-.44V50.18c0-.18-.017-.313-.05-.4-.035-.09-.096-.16-.184-.213-.087-.055-.188-.082-.305-.082-.188 0-.35.06-.486.178-.135.12-.203.344-.203.676v1.416h-.44m15.82-7.323v-.442h1.35v.442h-1.35m-2.612 1.074v-2.594h.395v.37c.19-.286.466-.428.825-.428.157 0 .3.028.43.085.132.056.23.13.295.22.066.09.11.2.137.325.016.08.025.224.025.427v1.594h-.44V43.93c0-.18-.017-.312-.05-.4-.035-.09-.096-.16-.184-.213-.086-.054-.187-.08-.304-.08-.188 0-.35.058-.486.177-.135.12-.203.344-.203.676v1.416h-.44m-2.946-1.297c0-.48.134-.836.4-1.067.224-.192.496-.288.817-.288.356 0 .647.117.874.35.227.234.34.556.34.968 0 .334-.05.597-.15.79-.1.19-.246.337-.438.443-.19.105-.4.158-.625.158-.363 0-.657-.117-.882-.35-.223-.232-.334-.567-.334-1.005m.453 0c0 .332.072.58.217.747.145.164.327.247.547.247.218 0 .4-.083.544-.25.146-.166.218-.42.218-.76 0-.32-.073-.562-.22-.726-.144-.165-.325-.248-.54-.248-.22 0-.403.082-.548.246-.145.165-.217.413-.217.745m-1.4-1.777v-.506h.44v.506h-.44m0 3.073v-2.594h.44v2.593m-.87-.394l.064.388c-.123.026-.234.04-.332.04-.16 0-.283-.026-.37-.076-.09-.05-.15-.117-.186-.198-.037-.083-.055-.256-.055-.52v-1.492h-.322v-.342h.322v-.642l.437-.263v.906h.442v.342h-.442v1.516c0 .126.007.206.022.242.016.036.04.064.076.086.035.02.086.03.15.03.05 0 .114-.005.194-.016m-1.768-.556l.432.056c-.047.298-.168.53-.363.7-.194.168-.432.252-.716.252-.355 0-.64-.116-.858-.347-.214-.232-.322-.564-.322-.997 0-.28.047-.525.14-.735.092-.21.233-.367.422-.47.19-.107.397-.16.62-.16.28 0 .512.072.69.215.18.14.294.343.345.605l-.427.066c-.04-.174-.113-.305-.218-.393-.102-.087-.227-.13-.373-.13-.222 0-.402.08-.54.24-.14.156-.208.407-.208.75 0 .35.067.602.2.76.133.158.308.237.522.237.173 0 .317-.053.433-.16.115-.105.188-.268.22-.487m-4.476.95v-2.594h.397v.37c.19-.286.465-.428.825-.428.156 0 .3.028.43.085.13.056.23.13.295.22.065.09.11.2.137.325.016.08.024.224.024.427v1.594h-.44V43.93c0-.18-.016-.312-.05-.4-.035-.09-.096-.16-.184-.213-.086-.054-.188-.08-.305-.08-.188 0-.35.058-.487.177-.135.12-.202.344-.202.676v1.416h-.44m-2.946-1.297c0-.48.134-.836.4-1.067.224-.192.496-.288.816-.288.357 0 .648.117.874.35.227.234.34.556.34.968 0 .334-.05.597-.152.79-.1.19-.245.337-.437.443-.19.105-.4.158-.625.158-.363 0-.656-.117-.88-.35-.224-.232-.336-.567-.336-1.005m.452 0c0 .332.073.58.217.747.145.164.328.247.547.247.218 0 .4-.083.545-.25.145-.166.217-.42.217-.76 0-.32-.073-.562-.22-.726-.145-.165-.325-.248-.542-.248-.22 0-.402.082-.547.246-.144.165-.217.413-.217.745m-3.264 1.296v-3.58h2.414v.423h-1.94v1.108h1.68v.423h-1.68v1.626h-.474m46.156 6.68l-.437.034c-.038-.172-.093-.298-.165-.376-.118-.125-.265-.188-.44-.188-.14 0-.262.04-.368.117-.138.1-.247.25-.327.442-.08.193-.12.47-.124.827.105-.16.235-.28.388-.36.153-.077.313-.116.48-.116.294 0 .543.11.748.326.207.214.31.493.31.835 0 .225-.05.434-.147.628-.096.192-.228.34-.398.442-.17.102-.36.154-.576.154-.365 0-.664-.135-.895-.403-.23-.27-.346-.714-.346-1.332 0-.692.126-1.195.382-1.51.223-.272.523-.41.9-.41.282 0 .513.08.692.238.18.158.29.376.324.654m-1.794 1.543c0 .15.032.296.095.435.064.138.155.244.27.317.116.072.237.107.364.107.186 0 .345-.075.478-.224.134-.15.2-.353.2-.61 0-.248-.065-.443-.197-.584-.132-.143-.298-.215-.498-.215s-.367.07-.506.214c-.137.14-.206.328-.206.56m-3.81.01l.448-.04c.02.18.07.326.147.442.077.114.197.207.36.278.163.07.346.105.55.105.18 0 .34-.028.478-.082.138-.054.24-.127.307-.22.07-.094.103-.196.103-.307 0-.11-.033-.21-.098-.292-.065-.085-.172-.156-.322-.213-.096-.037-.308-.095-.637-.173-.328-.08-.558-.154-.69-.224-.17-.09-.3-.2-.383-.332-.083-.134-.125-.283-.125-.447 0-.182.05-.35.154-.507.102-.158.252-.277.45-.36.196-.08.415-.12.656-.12.265 0 .5.042.7.13.204.084.36.21.47.375.108.166.167.354.175.564l-.454.034c-.024-.227-.107-.397-.25-.513-.14-.116-.347-.173-.622-.173-.285 0-.494.053-.626.158-.13.105-.195.23-.195.38 0 .127.045.233.138.316.09.083.33.17.713.257.386.087.65.162.794.228.208.096.362.218.462.366.1.146.15.316.15.508 0 .19-.056.37-.165.54-.108.167-.265.298-.47.392-.204.093-.433.14-.69.14-.323 0-.594-.048-.814-.142-.218-.094-.39-.236-.515-.425-.123-.19-.188-.405-.195-.645m-3.17 1.15v-3.578h2.59v.422H77.79v1.096h1.98v.42h-1.98v1.218h2.197v.423h-2.67M96.13 47.87l.435-.07c.024.175.092.31.203.4.112.094.268.14.468.14.202 0 .352-.04.45-.122.097-.083.146-.18.146-.29 0-.1-.043-.178-.13-.234-.06-.04-.21-.09-.45-.15-.32-.08-.545-.15-.67-.21-.124-.06-.218-.142-.283-.246-.063-.106-.094-.222-.094-.35 0-.115.026-.22.078-.32.053-.098.126-.18.217-.246.07-.05.162-.092.28-.126.118-.036.245-.054.38-.054.204 0 .382.03.535.088.154.058.268.138.342.24.073.098.123.232.15.4l-.43.058c-.018-.133-.075-.238-.17-.313-.092-.074-.224-.112-.395-.112-.202 0-.346.034-.432.1-.086.067-.13.145-.13.235 0 .057.018.108.054.153.036.05.092.088.17.12.043.015.172.052.387.11.312.084.528.152.65.206.124.052.22.13.29.23.07.1.106.226.106.376 0 .146-.043.284-.13.415-.084.128-.207.228-.368.3-.16.07-.344.105-.547.105-.336 0-.593-.07-.77-.21-.176-.14-.29-.348-.338-.623m-.832-.062l.454.056c-.072.266-.204.472-.398.618-.194.146-.44.22-.742.22-.38 0-.68-.117-.904-.35-.22-.234-.332-.562-.332-.983 0-.438.113-.776.337-1.017.225-.24.516-.36.874-.36.346 0 .63.117.85.353.22.236.33.568.33.996l-.004.117h-1.933c.016.284.096.502.24.653.146.152.327.227.543.227.16 0 .3-.042.413-.127.113-.085.203-.22.27-.405m-1.443-.71h1.448c-.02-.218-.075-.382-.166-.49-.14-.17-.323-.255-.546-.255-.202 0-.372.068-.51.203-.137.135-.212.315-.227.542m.474-1.37l.325-.684h.577l-.538.684h-.363M93.1 48.25l.063.388c-.123.026-.233.04-.33.04-.16 0-.284-.026-.372-.077-.088-.05-.15-.115-.185-.196-.036-.083-.054-.257-.054-.52v-1.492h-.323v-.342h.322v-.642l.436-.264v.906h.442v.342h-.442v1.516c0 .125.007.206.022.242.016.036.04.064.075.086.036.02.087.032.152.032.05 0 .113-.01.193-.017m-2.07-2.68v-.506h.44v.506h-.44m0 3.073V46.05h.44v2.593m-1.566 0v-3.58h.44v3.58m-1.522-.32c-.162.14-.32.237-.47.293-.15.057-.312.086-.484.086-.285 0-.504-.07-.657-.207-.154-.14-.23-.318-.23-.535 0-.127.028-.242.085-.346.06-.106.134-.19.227-.254.094-.064.2-.112.317-.144.086-.023.216-.045.39-.066.355-.043.616-.093.784-.152 0-.06.002-.098.002-.114 0-.18-.04-.306-.124-.38-.113-.098-.28-.148-.5-.148-.208 0-.36.037-.46.11-.098.072-.17.2-.217.383l-.43-.06c.04-.183.104-.33.193-.444.09-.113.22-.2.388-.26.17-.063.366-.094.59-.094.22 0 .4.027.538.08.14.05.24.117.305.196.064.078.11.178.136.298.015.075.022.21.022.405v.587c0 .41.01.668.027.777.02.107.057.21.112.31h-.46c-.044-.09-.074-.198-.087-.32m-.036-.982c-.16.066-.4.12-.718.167-.18.025-.31.054-.383.086-.075.033-.133.08-.174.145-.04.063-.062.132-.062.208 0 .117.044.215.132.293.09.08.22.118.39.118s.32-.037.452-.11c.132-.075.23-.176.29-.305.048-.1.072-.246.072-.44v-.16m-4.44 1.3V46.05h.397v.37c.19-.286.466-.428.826-.428.156 0 .3.028.43.085.13.056.23.13.295.22.066.09.112.2.138.325.016.08.024.224.024.427v1.593h-.44v-1.577c0-.18-.016-.312-.05-.4-.035-.09-.096-.16-.184-.213-.086-.053-.188-.08-.305-.08-.187 0-.35.06-.486.178-.135.12-.202.345-.202.677v1.416m-3.223 0V46.05h.396v.37c.19-.286.465-.428.825-.428.156 0 .3.028.43.085.13.056.23.13.295.22.065.09.11.2.137.325.016.08.024.224.024.427v1.593h-.44v-1.577c0-.18-.018-.312-.052-.4-.034-.09-.095-.16-.183-.213-.086-.053-.188-.08-.305-.08-.187 0-.35.06-.486.178-.135.12-.203.345-.203.677v1.416h-.438m-2.947-1.296c0-.48.134-.836.4-1.067.224-.192.495-.288.816-.288.358 0 .65.117.875.35.226.234.34.557.34.968 0 .334-.05.597-.152.79-.1.19-.245.337-.437.443-.19.106-.4.16-.625.16-.362 0-.656-.117-.88-.35-.223-.233-.335-.568-.335-1.006m.452 0c0 .332.072.58.217.747.145.164.327.247.547.247.22 0 .4-.082.546-.248.144-.166.217-.42.217-.76 0-.32-.073-.563-.22-.727-.145-.166-.325-.25-.542-.25-.22 0-.4.083-.546.247-.145.165-.217.413-.217.745m-1.4-1.777v-.506h.44v.506h-.44m0 3.073V46.05h.44v2.593m-.87-.393l.065.388c-.124.026-.235.04-.332.04-.16 0-.283-.026-.37-.077-.09-.05-.15-.115-.187-.196-.036-.083-.054-.257-.054-.52v-1.492h-.323v-.342h.322v-.642l.436-.264v.906h.442v.342h-.442v1.516c0 .125.008.206.022.242.017.036.042.064.076.086.036.02.086.032.15.032.05 0 .115-.01.194-.017m-1.767-.556l.433.056c-.047.298-.17.53-.364.7-.195.168-.433.252-.716.252-.355 0-.64-.116-.857-.347-.215-.233-.322-.565-.322-.998 0-.28.046-.525.14-.735.09-.21.232-.367.42-.47.192-.107.398-.16.62-.16.283 0 .513.07.692.215.18.14.294.343.344.605l-.426.066c-.04-.174-.113-.305-.217-.393-.103-.088-.227-.132-.374-.132-.22 0-.4.08-.54.24-.138.157-.207.408-.207.75 0 .35.067.603.2.76.134.16.308.237.523.237.17 0 .315-.053.43-.158.117-.106.19-.27.22-.488m-4.474.95V46.05h.395v.37c.192-.286.467-.428.826-.428.157 0 .3.028.43.085.132.056.23.13.295.22.067.09.112.2.138.325.016.08.025.224.025.427v1.593h-.44v-1.577c0-.18-.017-.312-.05-.4-.035-.09-.096-.16-.184-.213-.088-.053-.19-.08-.306-.08-.188 0-.35.06-.486.178-.135.12-.203.345-.203.677v1.416h-.44m-2.946-1.296c0-.48.132-.836.4-1.067.222-.192.494-.288.815-.288.356 0 .647.117.874.35.225.234.338.557.338.968 0 .334-.05.597-.15.79-.1.19-.246.337-.438.443-.19.106-.4.16-.625.16-.363 0-.657-.117-.882-.35-.223-.233-.334-.568-.334-1.006m.45 0c0 .332.073.58.218.747.145.164.327.247.547.247.218 0 .4-.082.544-.248.144-.166.216-.42.216-.76 0-.32-.073-.563-.22-.727-.144-.166-.325-.25-.54-.25-.22 0-.403.083-.548.247-.145.165-.217.413-.217.745m-3.264 1.296v-3.58h2.415v.424h-1.94v1.108h1.68v.422h-1.68v1.626h-.474m-37.18 5l.436-.068c.024.175.092.308.203.4.112.094.268.14.468.14.202 0 .352-.04.45-.122.097-.083.146-.18.146-.29 0-.1-.044-.178-.13-.235-.06-.04-.21-.09-.45-.15-.322-.08-.546-.15-.67-.21-.125-.06-.22-.14-.284-.246-.064-.105-.095-.222-.095-.35 0-.114.027-.22.08-.318.053-.1.125-.182.216-.247.07-.05.16-.093.278-.127.12-.036.246-.054.38-.054.205 0 .383.03.536.088.155.06.27.138.342.24.073.098.123.232.15.4l-.43.06c-.018-.135-.075-.24-.17-.314-.092-.075-.224-.112-.395-.112-.202 0-.346.033-.432.1-.086.067-.13.145-.13.234 0 .057.018.11.054.154.035.047.09.086.168.117.044.016.173.054.388.113.31.083.527.15.65.205.123.053.22.13.29.23.07.1.105.226.105.376 0 .147-.042.285-.13.415-.083.13-.206.23-.367.302-.16.07-.344.105-.547.105-.337 0-.594-.07-.772-.21-.175-.14-.288-.348-.337-.623m-.832-.062l.454.056c-.073.265-.205.47-.4.618-.193.146-.44.22-.74.22-.38 0-.68-.117-.904-.35-.222-.234-.332-.562-.332-.984 0-.436.112-.774.336-1.015.225-.24.516-.362.875-.362.346 0 .63.118.85.354.22.235.33.568.33.996l-.004.117H25.76c.016.285.097.503.24.654.146.15.327.227.543.227.163 0 .3-.042.414-.127.114-.085.204-.22.27-.405m-1.442-.71h1.448c-.02-.22-.075-.382-.166-.49-.14-.17-.322-.255-.545-.255-.202 0-.372.067-.51.202s-.213.315-.228.54m.474-1.368l.324-.684h.577l-.537.684h-.364m-1.233 2.522l.063.388c-.123.026-.234.04-.332.04-.16 0-.283-.026-.37-.077-.09-.05-.15-.116-.186-.198-.036-.083-.054-.256-.054-.52v-1.49h-.322v-.343h.322v-.642l.437-.264v.906h.443v.342h-.442v1.516c0 .125.008.206.023.24.016.037.04.065.076.087.034.02.085.03.15.03.05 0 .113-.01.193-.016m-2.634.393v-2.593h.394v.393c.1-.184.194-.305.278-.363.087-.06.18-.088.284-.088.148 0 .298.047.45.14l-.15.41c-.108-.064-.215-.096-.322-.096-.096 0-.183.03-.26.088-.076.057-.13.137-.163.24-.048.155-.072.326-.072.512v1.357m-3.38-1.296c0-.48.132-.835.4-1.066.222-.192.494-.288.814-.288.357 0 .648.117.874.35.227.234.34.556.34.968 0 .334-.05.597-.152.79-.1.19-.244.337-.437.443-.19.106-.398.16-.625.16-.362 0-.656-.118-.88-.35-.224-.233-.335-.57-.335-1.006m.45 0c0 .333.074.582.22.748.143.164.326.246.545.246.22 0 .4-.083.545-.25.145-.165.217-.418.217-.758 0-.32-.073-.563-.22-.728-.144-.166-.325-.25-.542-.25-.22 0-.402.083-.546.248-.145.164-.218.413-.218.745m-3.07 2.29v-3.586h.4v.337c.094-.13.2-.23.32-.294.118-.067.262-.1.43-.1.223 0 .418.057.587.17.17.115.297.276.384.484.085.207.128.434.128.68 0 .266-.048.506-.144.72-.094.21-.233.373-.415.487-.182.112-.372.17-.572.17-.147 0-.28-.032-.396-.094-.115-.062-.21-.14-.286-.235v1.263h-.44m.4-2.275c0 .334.067.58.202.74.135.16.298.24.49.24.196 0 .362-.083.5-.247.14-.166.21-.423.21-.77 0-.33-.068-.577-.204-.742-.135-.164-.297-.246-.486-.246-.187 0-.353.088-.498.263-.143.175-.215.428-.215.762m-3.18 2.276v-3.586h.4v.337c.094-.13.2-.23.32-.294.118-.067.262-.1.43-.1.223 0 .418.057.587.17.17.115.297.276.383.484.087.207.13.434.13.68 0 .266-.048.506-.144.72-.094.21-.232.373-.414.487-.18.112-.37.17-.572.17-.146 0-.278-.032-.395-.094-.117-.062-.212-.14-.287-.235v1.263h-.44m.4-2.275c0 .334.066.58.2.74.136.16.3.24.492.24.195 0 .362-.083.5-.247.14-.166.21-.423.21-.77 0-.33-.068-.577-.205-.742-.135-.164-.297-.246-.485-.246s-.354.088-.498.263c-.144.175-.215.428-.215.762m-1.482 1.282v-.38c-.202.292-.476.44-.823.44-.153 0-.296-.03-.43-.09-.13-.058-.23-.13-.295-.22-.064-.088-.108-.198-.134-.326-.018-.085-.027-.222-.027-.41v-1.606h.44v1.438c0 .23.01.384.027.464.028.116.086.207.176.273.09.064.2.097.332.097s.255-.033.37-.1c.117-.068.198-.16.245-.276.05-.116.073-.285.073-.506v-1.39h.44v2.593h-.393m-4.375-.774l.434-.068c.024.174.09.308.202.4.112.094.27.14.47.14.2 0 .35-.04.448-.122.098-.083.146-.18.146-.29 0-.1-.043-.178-.13-.235-.06-.04-.21-.09-.448-.15-.322-.08-.546-.15-.672-.21-.123-.06-.218-.142-.283-.246-.063-.106-.095-.222-.095-.35 0-.114.026-.22.078-.32.054-.098.126-.18.217-.245.07-.05.162-.093.28-.127.118-.036.245-.054.38-.054.203 0 .38.03.534.088.155.06.27.138.342.24.072.098.123.232.15.4l-.43.06c-.02-.135-.076-.24-.17-.314-.093-.075-.225-.112-.396-.112-.2 0-.345.033-.432.1-.086.067-.13.145-.13.234 0 .057.02.108.055.154.035.047.092.086.168.117.044.016.173.054.388.112.31.083.528.152.65.206.123.053.22.13.29.23.07.1.105.226.105.376 0 .147-.043.285-.13.415-.084.13-.207.23-.368.3-.16.07-.343.106-.547.106-.337 0-.594-.07-.77-.21-.177-.14-.29-.347-.338-.622m21.836-6.25l.435-.07c.025.175.092.308.203.4.112.094.27.14.47.14.2 0 .35-.04.448-.122.098-.083.146-.18.146-.29 0-.1-.043-.178-.13-.235-.06-.04-.21-.088-.448-.15-.322-.08-.546-.15-.672-.21-.123-.06-.218-.14-.283-.245-.064-.106-.096-.222-.096-.35 0-.115.026-.22.078-.32.054-.098.126-.18.217-.246.068-.05.16-.093.278-.127.12-.036.246-.054.38-.054.204 0 .382.03.535.088.155.058.27.138.342.24.073.098.124.232.15.4l-.428.058c-.02-.134-.077-.238-.17-.313-.094-.076-.226-.113-.397-.113-.2 0-.346.033-.432.1-.086.067-.13.145-.13.234 0 .058.02.11.055.155.035.047.09.087.168.117.045.017.174.054.39.113.31.083.527.15.65.205.122.052.22.128.29.23.07.1.104.226.104.375 0 .147-.043.285-.13.415-.084.13-.207.23-.368.3-.16.07-.343.106-.547.106-.338 0-.595-.07-.772-.21-.176-.14-.288-.348-.337-.623m-1.498.774v-2.593h.395v.393c.1-.184.194-.305.28-.363.085-.06.18-.088.282-.088.147 0 .297.047.45.14l-.15.41c-.108-.065-.216-.096-.323-.096-.096 0-.182.03-.26.088-.075.057-.13.136-.163.24-.048.155-.073.326-.073.512v1.357h-.438m-1.08 0v-.38c-.2.292-.475.44-.822.44-.153 0-.296-.03-.43-.09-.132-.058-.23-.13-.295-.22-.064-.088-.108-.198-.134-.326-.017-.086-.026-.222-.026-.41v-1.606h.44v1.438c0 .23.008.384.026.464.028.116.086.207.176.273.09.064.2.097.332.097s.255-.033.37-.1c.116-.068.198-.16.245-.276.05-.116.073-.285.073-.506v-1.39h.44v2.593h-.393m-2.708-.835l.454.056c-.072.266-.205.47-.4.618-.192.146-.44.22-.74.22-.38 0-.68-.117-.904-.35-.222-.234-.332-.562-.332-.983 0-.437.112-.775.337-1.016.225-.24.517-.36.875-.36.346 0 .63.117.85.353.22.236.33.568.33.996l-.004.117H23.67c.016.285.097.503.242.654.144.152.325.227.542.227.16 0 .298-.042.412-.127.114-.085.204-.22.27-.405m-1.442-.71h1.448c-.02-.218-.075-.382-.166-.49-.14-.17-.32-.255-.544-.255-.202 0-.372.068-.51.203-.137.135-.213.315-.228.542m-.76 1.152l.064.388c-.123.026-.234.04-.332.04-.16 0-.283-.026-.37-.077-.09-.05-.15-.116-.186-.198-.036-.083-.054-.256-.054-.52v-1.49h-.322v-.343h.322v-.642l.437-.264v.906h.443v.342h-.442v1.516c0 .125.008.206.023.24.016.037.042.065.076.087.035.02.085.03.15.03.05 0 .113-.01.193-.016m-2.05.073c-.164.14-.32.236-.472.293-.15.057-.31.085-.482.085-.285 0-.504-.07-.657-.207-.152-.14-.23-.318-.23-.535 0-.127.03-.242.087-.346.058-.106.134-.19.227-.254.094-.064.2-.112.317-.144.088-.024.218-.046.392-.067.355-.043.616-.093.784-.152 0-.06.002-.097.002-.113 0-.18-.042-.306-.125-.38-.112-.098-.28-.148-.5-.148-.207 0-.36.036-.46.11-.097.07-.17.198-.216.382l-.43-.058c.04-.184.103-.332.193-.445.09-.114.22-.202.388-.262.17-.062.365-.093.588-.093.222 0 .402.026.54.08.138.05.24.117.305.196.066.08.112.18.138.3.015.074.022.21.022.404v.586c0 .41.01.668.027.777.02.107.057.21.112.31h-.46c-.046-.09-.075-.198-.088-.32m-.036-.982c-.16.066-.4.12-.718.167-.18.026-.31.055-.384.087-.074.032-.132.08-.173.143-.04.062-.06.13-.06.208 0 .118.044.216.132.294.09.078.22.117.39.117s.32-.036.452-.11c.132-.074.23-.175.29-.304.048-.1.072-.246.072-.44v-.16m-4.52 1.516l.428.063c.018.132.067.228.15.288.108.08.257.122.445.122.203 0 .36-.04.47-.122.11-.08.186-.195.225-.342.023-.09.034-.276.032-.562-.192.226-.43.34-.718.34-.357 0-.633-.13-.828-.387-.196-.256-.293-.565-.293-.924 0-.248.043-.475.133-.684.09-.21.22-.372.388-.486.172-.114.372-.17.602-.17.306 0 .558.123.757.37v-.312h.404v2.24c0 .405-.042.69-.125.858-.082.17-.212.303-.39.4-.18.1-.398.147-.658.147-.31 0-.56-.07-.75-.21-.19-.14-.282-.348-.275-.628m.363-1.558c0 .34.068.588.203.745.135.155.304.233.508.233.203 0 .372-.077.51-.232.135-.155.204-.4.204-.73 0-.32-.07-.558-.213-.72-.14-.16-.308-.24-.507-.24-.195 0-.36.08-.498.238-.136.158-.205.394-.205.706m-1.394-1.73v-.506h.44v.505h-.44m0 3.074v-2.593h.44v2.593m-2.222 0l-.986-2.593h.464l.556 1.553c.06.168.116.342.166.523.04-.137.094-.3.164-.494l.576-1.582h.452l-.982 2.593h-.41m-1.81-.32c-.164.14-.32.236-.473.293-.148.057-.31.085-.482.085-.285 0-.504-.07-.657-.207-.152-.14-.228-.318-.228-.535 0-.127.028-.242.085-.346.06-.106.134-.19.227-.254.095-.064.2-.112.318-.144.086-.024.216-.046.39-.067.355-.043.616-.093.784-.152 0-.06.002-.097.002-.113 0-.18-.04-.306-.124-.38-.113-.098-.28-.148-.5-.148-.207 0-.36.036-.46.11-.097.07-.17.198-.217.382l-.43-.058c.04-.184.104-.332.193-.445.09-.114.22-.202.388-.262.17-.062.366-.093.59-.093.22 0 .4.026.538.08.14.05.24.117.305.196.067.08.112.18.138.3.015.074.022.21.022.404v.586c0 .41.01.668.027.777.02.107.057.21.112.31h-.46c-.045-.09-.075-.198-.088-.32m-.036-.982c-.16.066-.4.12-.718.167-.18.026-.308.055-.383.087-.075.032-.133.08-.174.143-.04.062-.06.13-.06.208 0 .118.044.216.132.294.09.078.22.117.39.117s.32-.036.453-.11c.13-.074.228-.175.29-.304.047-.1.07-.246.07-.44v-.16m-5.216 1.3V44.59h.484l1.88 2.81v-2.81h.454v3.58h-.485l-1.88-2.813v2.812H6.45"/></svg>