<svg xmlns="http://www.w3.org/2000/svg" width="100" height="100"><path d="M34.113 82.918L15.08 30.848l52.267-13.982 9.507 54.615-19.816 11.654z" fill="#e44d26"/><path d="M55.856 78.594l16.01-9.42L63.74 22.5l-21.36 5.716z" fill="#f16529"/><path d="M5.404 53.662L7.6 62.105l18.71-5.01s5.74 9.63 15.797 8.828c10.06-.802 14.158-7.644 14.158-7.644l-.694-3.362-13.394 3.733-8.43-8.342L36.82 38.57l12.605-3.13-.584-3.087s-11.554-8.056-22.564 6.994c0 0-2.914 5.663-2.438 8.84L5.404 53.66zm-2.413.707L0 55.15l2.326 8.572 3.155-.78zm89.214-10.565l2.435 8.38-18.644 5.267s0 11.213-9.048 15.67c-9.047 4.46-16.075.68-16.075.68l-1.125-3.244 13.42-3.65 2.97-11.484-8.645-8.505-12.43 3.758-1.078-2.95s5.807-12.834 22.966-5.534c0 0 5.407 3.374 6.62 6.35l18.634-4.74zm2.435-.63l2.97-.855 2.39 8.556-3.11.943z" fill="#efefef"/><path d="M1.9 54.576l-1.9.576 2.326 8.572 3.155-.78-.762-2.88-1.32.22zm5.544-1.516l-2.04.602L7.6 62.105l18.71-5.01s5.182 8.3 13.022 8.787c7.832.483 14.032-3.36 16.933-7.603l-.317-1.55s-9.37 9.05-19.64 4.077c-6.465-3.458-8.722-7.387-8.722-7.387L8.92 58.646 7.443 53.06zM48.84 32.355L37.82 35.223l-.994 3.348 12.603-3.13zm46.846 10.443l1.924-.478 2.39 8.556-3.11.943-.814-2.866 1.24-.485zm-5.538 1.53l2.056-.523 2.435 8.38-18.644 5.267s-.2 9.784-6.69 14.214C62.83 76.093 55.53 75.96 50.872 73.8l-.518-1.494s12.677 2.98 18.955-6.545c3.785-6.28 3.72-10.806 3.72-10.806l18.707-5.065-1.586-5.56zm-46.166 3.395l10.944-3.175 2.562 2.366-12.426 3.76z" fill="#bcbcbc"/></svg>